<svg width="48" height="48" viewBox="0 0 48 48" fill="none" xmlns="http://www.w3.org/2000/svg">
<path d="M22 26H32M16 26H16.018M26 34H16M32 34H31.982" stroke="#B58300" stroke-width="3" stroke-linecap="round" stroke-linejoin="round"/>
<path d="M36 4V8M12 4V8" stroke="#B58300" stroke-width="3" stroke-linecap="round" stroke-linejoin="round"/>
<path d="M5 24.4865C5 15.7719 5 11.4146 7.50424 8.70728C10.0085 6 14.039 6 22.1 6H25.9C33.961 6 37.9915 6 40.4958 8.70728C43 11.4146 43 15.7719 43 24.4865V25.5135C43 34.2281 43 38.5854 40.4958 41.2927C37.9915 44 33.961 44 25.9 44H22.1C14.039 44 10.0085 44 7.50424 41.2927C5 38.5854 5 34.2281 5 25.5135V24.4865Z" stroke="#B58300" stroke-width="3" stroke-linecap="round" stroke-linejoin="round"/>
<path d="M6 16H42" stroke="#B58300" stroke-width="3" stroke-linecap="round" stroke-linejoin="round"/>
</svg>
