<svg width="108" height="95" viewBox="0 0 108 95" fill="none" xmlns="http://www.w3.org/2000/svg">
<path d="M54 77.7079C74.201 77.7079 90.5772 72.0041 90.5772 64.9682C90.5772 57.9323 74.201 52.2285 54 52.2285C33.799 52.2285 17.4229 57.9323 17.4229 64.9682C17.4229 72.0041 33.799 77.7079 54 77.7079Z" fill="#FFECE5"/>
<path d="M55.2016 27.2289C55.1313 27.1445 55.051 27.0671 54.9619 26.9976C54.6468 26.753 54.2208 26.6123 53.7482 26.6123C53.6026 26.6123 53.45 26.6264 53.2954 26.6545C53.2201 26.6686 53.1468 26.6862 53.0745 26.7055C53.0666 26.7073 53.0586 26.7091 53.0507 26.7108C53.021 26.7196 52.9913 26.7293 52.9616 26.739C52.9497 26.7425 52.9368 26.746 52.9249 26.7504C52.8763 26.7671 52.8278 26.7847 52.7802 26.8032C52.7773 26.8041 52.7743 26.8058 52.7723 26.8067C52.7069 26.8331 52.6435 26.8621 52.5811 26.8929C52.5771 26.8947 52.5742 26.8964 52.5702 26.8982C52.5553 26.9061 52.5415 26.9149 52.5266 26.9228C52.488 26.9439 52.4493 26.965 52.4117 26.987C52.4048 26.9914 52.3968 26.9949 52.3899 26.9993C52.375 27.0081 52.3612 27.0187 52.3463 27.0284C52.3156 27.0486 52.2849 27.068 52.2542 27.0891C52.2452 27.0952 52.2353 27.1014 52.2254 27.1075C52.2135 27.1163 52.2016 27.126 52.1898 27.1348C52.161 27.1559 52.1333 27.1779 52.1056 27.1999C52.0947 27.2087 52.0838 27.2166 52.0729 27.2254C52.052 27.243 52.0312 27.2606 52.0114 27.2791C51.9847 27.3037 51.9589 27.3283 51.9332 27.353C51.9262 27.3591 51.9213 27.3661 51.9143 27.3732C51.8846 27.4031 51.8559 27.4348 51.8281 27.4655C51.8182 27.477 51.8063 27.4875 51.7974 27.499C51.7945 27.5025 51.7925 27.506 51.7895 27.5095C51.7469 27.5597 51.7073 27.6116 51.6706 27.6652C51.6686 27.6679 51.6667 27.6696 51.6647 27.6723C51.6389 27.7101 51.6141 27.7488 51.5904 27.7875C51.5854 27.7954 51.5814 27.8042 51.5765 27.8121C51.5606 27.8403 51.5438 27.8684 51.5299 27.8966C51.526 27.9036 51.524 27.9106 51.52 27.9177C51.5131 27.9326 51.5062 27.9476 51.4992 27.9634C51.4853 27.9933 51.4725 28.0232 51.4606 28.0531C51.4536 28.069 51.4477 28.0857 51.4418 28.1015C51.4299 28.1332 51.42 28.164 51.41 28.1956C51.4061 28.2106 51.4011 28.2247 51.3972 28.2396C51.3843 28.2854 51.3734 28.332 51.3655 28.3786C51.3427 28.5035 51.3348 28.6319 51.3457 28.7595L51.3972 29.4262L53.5391 32.0185L53.4876 31.3518C53.4767 31.2233 53.4847 31.0958 53.5075 30.9709C53.5154 30.9242 53.5273 30.8776 53.5391 30.8319C53.5431 30.8169 53.5481 30.8029 53.552 30.7879C53.5619 30.7562 53.5718 30.7246 53.5827 30.6938C53.5887 30.678 53.5946 30.6612 53.6016 30.6454C53.6135 30.6155 53.6263 30.5856 53.6402 30.5557C53.6471 30.5407 53.6541 30.5258 53.661 30.5108C53.6788 30.4756 53.6977 30.4405 53.7175 30.4053C53.7224 30.3974 53.7264 30.3886 53.7314 30.3806C53.7561 30.3393 53.7829 30.298 53.8106 30.2575C53.8473 30.2047 53.8879 30.1528 53.9295 30.1018C53.9424 30.0868 53.9553 30.0728 53.9691 30.0578C53.9969 30.0261 54.0256 29.9954 54.0553 29.9655C54.087 29.9338 54.1187 29.9021 54.1524 29.8713C54.1831 29.8441 54.2148 29.8186 54.2465 29.7922C54.2743 29.7702 54.302 29.7482 54.3308 29.7271C54.3516 29.7112 54.3734 29.6954 54.3951 29.6805C54.4249 29.6593 54.4556 29.6391 54.4873 29.6198C54.5091 29.6057 54.5299 29.5916 54.5527 29.5784C54.5903 29.5564 54.629 29.5353 54.6676 29.5142C54.6864 29.5045 54.7043 29.494 54.7231 29.4843C54.7855 29.4535 54.8489 29.4245 54.9143 29.3981C54.9648 29.3779 55.0154 29.3585 55.0679 29.3409C55.0798 29.3365 55.0926 29.333 55.1045 29.3295C55.1422 29.3172 55.1798 29.3066 55.2185 29.2961C55.2908 29.2767 55.3641 29.2582 55.4394 29.245C55.5939 29.2169 55.7465 29.2028 55.8922 29.2028C56.3657 29.2028 56.7917 29.3436 57.1058 29.5881C57.195 29.6576 57.2752 29.7341 57.3456 29.8194L55.2016 27.2289Z" fill="#FA9874"/>
<path d="M53.5386 32.1954C53.4772 32.1954 53.4168 32.1699 53.3791 32.1232L51.2371 29.5301C51.2154 29.5028 51.2015 29.4711 51.1995 29.4377L51.148 28.771C51.1361 28.6355 51.144 28.493 51.1698 28.3496C51.1787 28.3021 51.1896 28.2529 51.2045 28.1974C51.2074 28.186 51.2114 28.1746 51.2144 28.1631L51.2183 28.1499C51.2292 28.1156 51.2401 28.0805 51.253 28.047C51.2599 28.0294 51.2669 28.0118 51.2738 27.9934C51.2867 27.9608 51.3006 27.9283 51.3164 27.8957L51.3214 27.8843C51.3273 27.872 51.3333 27.8588 51.3392 27.8465L51.3501 27.8236C51.365 27.7937 51.3818 27.7655 51.3986 27.7365L51.4165 27.7057C51.4412 27.6635 51.468 27.6213 51.4967 27.5799C51.4987 27.5764 51.5047 27.5694 51.5076 27.5659C51.5413 27.5166 51.5849 27.4594 51.6315 27.404C51.6315 27.4031 51.6364 27.3979 51.6404 27.3917C51.6473 27.3838 51.6552 27.375 51.6642 27.3662L51.6731 27.3565C51.7028 27.3222 51.7335 27.2888 51.7662 27.2562C51.7741 27.2466 51.7801 27.2404 51.786 27.2351C51.8138 27.2079 51.8415 27.1815 51.8702 27.1551C51.892 27.1357 51.9138 27.1164 51.9366 27.0979C51.9455 27.0909 51.9535 27.0838 51.9624 27.0777L51.9713 27.0706C52 27.0469 52.0307 27.0231 52.0614 27.0003L52.0723 26.9915C52.0813 26.9844 52.0902 26.9774 52.1001 26.9704C52.108 26.9651 52.1159 26.9598 52.1239 26.9545C52.1625 26.9273 52.1962 26.9061 52.2299 26.8842L52.2428 26.8754C52.2537 26.8674 52.2645 26.8604 52.2764 26.8534C52.2834 26.849 52.2903 26.8455 52.2972 26.8411C52.3398 26.8155 52.3815 26.7936 52.4231 26.7707L52.4359 26.7636C52.4468 26.7575 52.4587 26.7505 52.4706 26.7443C52.4746 26.7425 52.4835 26.7381 52.4875 26.7364C52.5499 26.7047 52.6192 26.6739 52.6876 26.6458C52.6876 26.6458 52.6965 26.6423 52.6965 26.6414C52.748 26.6211 52.8005 26.6018 52.853 26.5842C52.862 26.5816 52.8719 26.578 52.8808 26.5754L52.9085 26.5666C52.9353 26.5578 52.962 26.5499 52.9888 26.542C52.9977 26.5393 53.0066 26.5376 53.0155 26.5358C53.1027 26.5121 53.181 26.4945 53.2543 26.4813C53.4217 26.4514 53.5872 26.4355 53.7467 26.4355C54.2569 26.4355 54.7345 26.5877 55.0911 26.8639C55.1912 26.9422 55.2823 27.0293 55.3596 27.1234L57.5006 29.7148L57.5016 29.7157C57.566 29.794 57.5472 29.9039 57.459 29.962C57.3708 30.0192 57.247 30.0024 57.1816 29.9242C57.1212 29.8511 57.0508 29.7825 56.9716 29.7218C56.6872 29.5011 56.3028 29.3797 55.8877 29.3797C55.7539 29.3797 55.6152 29.3929 55.4746 29.4184C55.4141 29.4298 55.3477 29.4448 55.2724 29.465C55.2368 29.4747 55.2021 29.4843 55.1674 29.4958L55.1337 29.5063C55.0862 29.5222 55.0386 29.5398 54.9931 29.5582C54.9346 29.582 54.8752 29.6084 54.8167 29.6383C54.8078 29.6427 54.7989 29.648 54.7899 29.6532L54.7662 29.6664C54.7305 29.6858 54.6948 29.7051 54.6602 29.7254C54.6433 29.735 54.6265 29.7456 54.6106 29.7561L54.6007 29.7623C54.572 29.7808 54.5433 29.7992 54.5155 29.8186C54.4957 29.8327 54.4759 29.8468 54.4561 29.8617C54.4303 29.8811 54.4046 29.9013 54.3788 29.9224L54.3689 29.9303C54.3431 29.9514 54.3174 29.9725 54.2926 29.9945C54.2619 30.0227 54.2322 30.0517 54.2034 30.0807C54.1757 30.1089 54.1499 30.137 54.1242 30.1661L54.1083 30.1845C54.1014 30.1916 54.0944 30.1995 54.0885 30.2065C54.0489 30.254 54.0122 30.3024 53.9785 30.349C53.9528 30.386 53.928 30.4238 53.9052 30.4616L53.8933 30.4836C53.8755 30.5153 53.8577 30.5469 53.8418 30.5795L53.822 30.6208C53.8091 30.6481 53.7972 30.6745 53.7863 30.7026C53.7804 30.7176 53.7744 30.7317 53.7695 30.7466C53.7596 30.7748 53.7497 30.8038 53.7408 30.8319L53.7289 30.8715C53.718 30.9129 53.7081 30.9542 53.7001 30.9964C53.6793 31.1125 53.6734 31.2269 53.6823 31.3368L53.7338 32.0045C53.7398 32.0828 53.6873 32.1549 53.604 32.1813C53.5842 32.1918 53.5614 32.1954 53.5386 32.1954ZM51.5908 29.3638L53.2949 31.4266L53.29 31.365C53.2781 31.2295 53.286 31.087 53.3118 30.9436C53.3207 30.8961 53.3316 30.846 53.3464 30.7915C53.3494 30.78 53.3534 30.7686 53.3563 30.7572L53.3603 30.7431C53.3712 30.7088 53.3821 30.6745 53.394 30.6402C53.4009 30.6226 53.4079 30.6041 53.4148 30.5865C53.4277 30.554 53.4425 30.5214 53.4574 30.4889L53.4633 30.4766C53.4693 30.4643 53.4752 30.4519 53.4812 30.4396C53.5 30.4009 53.5208 30.3631 53.5426 30.3253L53.5575 30.2989C53.5842 30.254 53.6129 30.2092 53.6437 30.1661C53.6823 30.1098 53.7259 30.0535 53.7725 29.998C53.7814 29.9866 53.7913 29.9761 53.8012 29.9646L53.8141 29.9497C53.8438 29.9154 53.8745 29.8819 53.9072 29.8494C53.9409 29.8151 53.9756 29.7808 54.0122 29.7482C54.0419 29.7218 54.0726 29.6963 54.1034 29.6717L54.1133 29.6638C54.143 29.64 54.1727 29.6163 54.2034 29.5934C54.2262 29.5767 54.249 29.5591 54.2728 29.5433C54.3045 29.5204 54.3382 29.4993 54.3719 29.4782L54.3818 29.472C54.4016 29.4588 54.4214 29.4465 54.4422 29.4342C54.4828 29.4105 54.5244 29.3876 54.566 29.3647L54.5849 29.355C54.5987 29.348 54.6116 29.3401 54.6255 29.333C54.6938 29.2987 54.7632 29.268 54.8316 29.2398C54.8861 29.2178 54.9405 29.1976 54.997 29.1782L55.0366 29.1659C55.0773 29.1527 55.1179 29.1413 55.1595 29.1299C55.2467 29.1061 55.3249 29.0885 55.3983 29.0744C55.7886 29.0032 56.1661 29.0173 56.5089 29.107L55.0426 27.3328C54.9822 27.2589 54.9108 27.1911 54.8326 27.1305C54.5482 26.9097 54.1628 26.7883 53.7487 26.7883C53.6149 26.7883 53.4762 26.8015 53.3355 26.827C53.2741 26.8384 53.2097 26.8534 53.1334 26.8736C53.1255 26.8754 53.1176 26.8771 53.1097 26.8789C53.0898 26.8842 53.068 26.8912 53.0462 26.8982L52.9957 26.9141C52.9501 26.929 52.9056 26.9457 52.862 26.9633C52.7956 26.9906 52.7361 27.0179 52.6777 27.0469C52.6737 27.0486 52.6648 27.053 52.6608 27.0548C52.6628 27.0539 52.6569 27.0574 52.6529 27.0601C52.645 27.0645 52.6361 27.0698 52.6272 27.0742C52.5905 27.0935 52.5548 27.1129 52.5202 27.1331C52.5142 27.1366 52.5073 27.1401 52.5013 27.1436C52.4944 27.148 52.4894 27.1516 52.4845 27.1551L52.4607 27.1709C52.432 27.1894 52.4033 27.2079 52.3755 27.2272C52.3696 27.2316 52.3626 27.236 52.3557 27.2404L52.3379 27.2536C52.3309 27.2589 52.324 27.265 52.3161 27.2703C52.2903 27.2897 52.2645 27.3099 52.2388 27.3301L52.2081 27.3539C52.1892 27.3697 52.1704 27.3864 52.1516 27.4031C52.1268 27.4251 52.1031 27.448 52.0793 27.4718C52.0723 27.4797 52.0674 27.4849 52.0614 27.4902C52.0347 27.5175 52.0079 27.5465 51.9832 27.5747C51.9772 27.5817 51.9703 27.5887 51.9644 27.5949L51.9544 27.6055C51.9544 27.6055 51.9515 27.6099 51.9475 27.6142C51.9069 27.6626 51.8702 27.7101 51.8375 27.7576C51.8356 27.7603 51.8326 27.7647 51.8296 27.7673C51.8058 27.8016 51.785 27.8359 51.7642 27.8702L51.7513 27.8931C51.7355 27.9212 51.7216 27.9459 51.7087 27.9696L51.681 28.0303C51.6681 28.0576 51.6562 28.084 51.6453 28.1121C51.6394 28.1271 51.6334 28.142 51.6285 28.1561C51.6186 28.1843 51.6087 28.2133 51.6008 28.2414L51.5889 28.281C51.578 28.3224 51.5681 28.3637 51.5601 28.4059C51.5393 28.522 51.5334 28.6364 51.5423 28.7463L51.5908 29.3638Z" fill="#FFECE5"/>
<path d="M56.1719 30.9824L54.0299 28.3901C54.0071 28.3628 53.9813 28.3373 53.9526 28.3153C53.8496 28.2362 53.7129 28.1904 53.5613 28.1904C53.5127 28.1913 53.4642 28.1957 53.4136 28.2045C53.3869 28.2098 53.3601 28.2159 53.3344 28.223C53.3265 28.2256 53.3195 28.2283 53.3116 28.2309C53.2997 28.2344 53.2888 28.2388 53.2779 28.2423C53.268 28.2458 53.2571 28.2485 53.2472 28.2529C53.2294 28.2599 53.2135 28.2678 53.1967 28.2758C53.1927 28.2775 53.1887 28.2793 53.1858 28.281C53.1838 28.2819 53.1828 28.2828 53.1808 28.2837C53.161 28.2933 53.1422 28.3039 53.1234 28.3153C53.1144 28.3206 53.1055 28.3268 53.0976 28.3329C53.0936 28.3356 53.0887 28.3391 53.0847 28.3417C53.0808 28.3444 53.0758 28.347 53.0718 28.3496C53.055 28.362 53.0391 28.3743 53.0233 28.3875C53.0154 28.3936 53.0084 28.4007 53.0015 28.4068C52.9926 28.4147 52.9837 28.4235 52.9747 28.4314C52.9589 28.4464 52.944 28.4631 52.9302 28.4789C52.9292 28.4798 52.9282 28.4816 52.9272 28.4833C52.9242 28.4869 52.9222 28.4904 52.9193 28.4939C52.9084 28.508 52.8975 28.5212 52.8876 28.5361C52.8826 28.5432 52.8786 28.5511 52.8747 28.5581C52.8687 28.5678 52.8628 28.5775 52.8568 28.5871C52.8529 28.5942 52.8479 28.6012 52.844 28.6083C52.838 28.6206 52.8331 28.6338 52.8281 28.6461C52.8242 28.6549 52.8202 28.6637 52.8162 28.6733C52.8053 28.7024 52.7964 28.7314 52.7915 28.7613C52.7845 28.8018 52.7825 28.8431 52.7855 28.8845L52.8271 29.4281L54.9691 32.0203L54.9275 31.4767C54.9245 31.4354 54.9265 31.394 54.9334 31.3536C54.9384 31.3237 54.9473 31.2946 54.9582 31.2656C54.9612 31.2568 54.9661 31.248 54.9701 31.2383C54.979 31.2181 54.9879 31.1988 54.9988 31.1794C55.0048 31.1697 55.0107 31.1601 55.0167 31.1504C55.0305 31.1284 55.0454 31.1073 55.0622 31.0862C55.0652 31.0826 55.0672 31.0791 55.0702 31.0756C55.093 31.0492 55.1167 31.0228 55.1435 30.9991C55.1692 30.9753 55.197 30.9542 55.2267 30.9331C55.2307 30.9305 55.2356 30.927 55.2396 30.9243C55.2673 30.9058 55.297 30.8883 55.3278 30.8724C55.3317 30.8707 55.3357 30.8689 55.3387 30.8671C55.3654 30.8548 55.3922 30.8434 55.4209 30.8337C55.4318 30.8293 55.4437 30.8258 55.4546 30.8223C55.4873 30.8117 55.5209 30.8029 55.5566 30.7959C55.6071 30.7871 55.6557 30.7827 55.7042 30.7818C55.8558 30.7818 55.9925 30.8276 56.0956 30.9067C56.1233 30.9305 56.1491 30.9551 56.1719 30.9824Z" fill="#FA9874"/>
<path d="M54.9686 32.1953C54.9072 32.1953 54.8467 32.1698 54.8091 32.1232L52.6671 29.5301C52.6453 29.5028 52.6314 29.4711 52.6295 29.4377L52.5879 28.8941C52.5839 28.8387 52.5859 28.7841 52.5958 28.7314C52.6027 28.6953 52.6126 28.6575 52.6275 28.6161C52.6314 28.6064 52.6354 28.5968 52.6394 28.5871L52.6453 28.5721C52.6503 28.5589 52.6562 28.5458 52.6622 28.5334C52.6661 28.5246 52.6721 28.5158 52.677 28.5079C52.6849 28.4939 52.6919 28.4815 52.6998 28.4692C52.7057 28.4587 52.7107 28.4499 52.7166 28.442C52.7285 28.4244 52.7424 28.4068 52.7563 28.3901C52.7593 28.3857 52.7622 28.3813 52.7662 28.3769C52.788 28.3514 52.8058 28.3311 52.8256 28.3126C52.8365 28.3021 52.8474 28.2915 52.8583 28.2819C52.8662 28.2748 52.8762 28.266 52.8851 28.2581C52.9039 28.2423 52.9247 28.2264 52.9445 28.2115C52.9475 28.2097 52.9574 28.2027 52.9604 28.2009L52.9832 28.1851C52.9911 28.1798 53 28.1737 53.0089 28.1684C53.0327 28.1543 53.0565 28.1411 53.0802 28.1288C53.0842 28.127 53.0902 28.1244 53.0941 28.1226L53.102 28.1191C53.1209 28.1103 53.1417 28.0998 53.1635 28.091C53.1744 28.0866 53.1853 28.0831 53.1962 28.0795C53.216 28.0725 53.2299 28.0681 53.2447 28.0628C53.2546 28.0593 53.2635 28.0558 53.2734 28.0532C53.3061 28.0444 53.3388 28.0364 53.3725 28.0303C53.433 28.0197 53.4924 28.0136 53.5558 28.0127C53.7559 28.0127 53.9402 28.0725 54.0809 28.1807C54.1215 28.2124 54.1572 28.2476 54.1879 28.2845L56.3289 30.8768C56.3289 30.8768 56.3289 30.8776 56.3299 30.8776C56.3943 30.9559 56.3755 31.0659 56.2873 31.1239C56.1991 31.1811 56.0753 31.1644 56.0099 31.0861C55.996 31.0694 55.9801 31.0536 55.9613 31.0395C55.893 30.9867 55.8008 30.9577 55.7008 30.9577C55.6651 30.9586 55.6274 30.9621 55.5918 30.9683C55.572 30.9718 55.5482 30.9779 55.5165 30.9876C55.5076 30.9902 55.4986 30.9938 55.4907 30.9964C55.4699 31.0034 55.4491 31.0122 55.4293 31.0219C55.4273 31.0228 55.4194 31.0263 55.4174 31.0272C55.3996 31.036 55.3778 31.0492 55.354 31.065L55.2232 30.9322L55.3441 31.0712C55.3193 31.0879 55.2995 31.1046 55.2807 31.1204C55.2609 31.1389 55.242 31.1583 55.2242 31.1794L55.2183 31.1873C55.2054 31.2031 55.1945 31.2189 55.1846 31.2357C55.1796 31.2427 55.1757 31.2497 55.1717 31.2577C55.1638 31.2717 55.1568 31.2858 55.1509 31.2999L55.1459 31.3113C55.1341 31.3421 55.1281 31.3623 55.1251 31.3799C55.1202 31.4054 55.1192 31.4345 55.1212 31.4635L55.1628 32.0071C55.1687 32.0854 55.1162 32.1575 55.033 32.1839C55.0142 32.1918 54.9914 32.1953 54.9686 32.1953ZM53.0208 29.3638L54.7278 31.4301C54.7278 31.3949 54.7318 31.3597 54.7378 31.3254C54.7447 31.2893 54.7546 31.2515 54.7695 31.2101C54.7724 31.2005 54.7774 31.1917 54.7814 31.182C54.7952 31.1503 54.8071 31.1248 54.821 31.1002C54.8279 31.0879 54.8358 31.0756 54.8428 31.0633C54.8606 31.036 54.8794 31.0087 54.9002 30.9823C54.9032 30.9788 54.9072 30.9735 54.9111 30.9683C54.9389 30.9357 54.9696 30.9032 55.0023 30.8741C55.032 30.8469 55.0667 30.8205 55.1043 30.7932C55.1053 30.7923 55.1152 30.7862 55.1162 30.7853C55.1578 30.758 55.1935 30.7369 55.2302 30.7184C55.2331 30.7167 55.242 30.7132 55.245 30.7114C55.2767 30.6964 55.3104 30.6824 55.3461 30.6701C55.3599 30.6648 55.3748 30.6604 55.3887 30.6551C55.4362 30.6401 55.4759 30.6305 55.5155 30.6226C55.5502 30.6164 55.5838 30.612 55.6195 30.6094L53.8709 28.493C53.857 28.4763 53.8411 28.4604 53.8223 28.4464C53.754 28.3945 53.6618 28.3645 53.5618 28.3645C53.5261 28.3654 53.4884 28.3689 53.4528 28.3751C53.4339 28.3786 53.4141 28.383 53.3953 28.3883C53.3913 28.3901 53.3844 28.3927 53.3785 28.3945C53.3695 28.3971 53.3616 28.4006 53.3527 28.4033L53.3329 28.4094C53.316 28.4156 53.3032 28.4217 53.2913 28.4279C53.2893 28.4288 53.2814 28.4323 53.2784 28.4332C53.2774 28.434 53.2754 28.4349 53.2744 28.4349C53.2616 28.442 53.2477 28.449 53.2358 28.4569L53.216 28.4701L53.0852 28.3373L53.2071 28.4763C53.2051 28.4771 53.1972 28.4833 53.1952 28.4842C53.1843 28.4921 53.1714 28.5018 53.1595 28.5114L53.1427 28.5264C53.1347 28.5334 53.1278 28.5396 53.1219 28.5458C53.111 28.5563 53.1011 28.5669 53.0911 28.5783C53.0892 28.5801 53.0882 28.5818 53.0872 28.5836C53.0862 28.5853 53.0822 28.5906 53.0802 28.5924C53.0713 28.6029 53.0634 28.6126 53.0565 28.6232L53.0466 28.6399C53.0416 28.6478 53.0376 28.6548 53.0337 28.6619L53.0079 28.7164C52.996 28.7472 52.9901 28.7674 52.9871 28.785C52.9822 28.8105 52.9812 28.8395 52.9832 28.8686L53.0208 29.3638Z" fill="#FFECE5"/>
<path d="M56.928 31.1112C56.925 31.0681 56.9181 31.0259 56.9092 30.9846C56.9092 30.9828 56.9082 30.981 56.9072 30.9793C56.8963 30.9335 56.8834 30.8887 56.8656 30.8456C56.8507 30.8095 56.8339 30.7743 56.8141 30.74C56.8131 30.7374 56.8111 30.7356 56.8091 30.733C56.8042 30.7242 56.7972 30.7154 56.7923 30.7066C56.7804 30.6881 56.7685 30.6688 56.7556 30.6512C56.7477 30.6406 56.7388 30.6292 56.7299 30.6186L54.5879 28.0264C54.6107 28.0545 54.6305 28.0844 54.6503 28.1143C54.6563 28.1231 54.6622 28.131 54.6671 28.1407C54.6889 28.1768 54.7078 28.2146 54.7236 28.2533C54.7415 28.2964 54.7543 28.3404 54.7652 28.387C54.7751 28.4292 54.7821 28.4732 54.785 28.5181L54.8544 29.4259L56.9964 32.0181L56.928 31.1112Z" fill="#F77A4A"/>
<path d="M56.9978 32.1946C56.9364 32.1946 56.876 32.1691 56.8383 32.1225L54.6963 29.5293C54.6745 29.5021 54.6607 29.4704 54.6587 29.437L54.5893 28.5292C54.5864 28.4931 54.5814 28.4579 54.5725 28.421C54.5636 28.3823 54.5527 28.3453 54.5388 28.3119C54.5269 28.282 54.512 28.2521 54.4932 28.2213L54.4794 28.2011C54.4635 28.1765 54.4477 28.1518 54.4298 28.1307V28.1298C54.3654 28.0516 54.3842 27.9416 54.4724 27.8835C54.5606 27.8264 54.6844 27.8431 54.7498 27.9214L54.7508 27.9222L56.8918 30.5136C56.9027 30.5259 56.9126 30.5391 56.9225 30.5523C56.9364 30.5699 56.9483 30.5893 56.9602 30.6078L56.9671 30.6183C56.975 30.6297 56.98 30.6377 56.9849 30.6456C56.9879 30.65 56.9909 30.6553 56.9929 30.6579C57.0166 30.6992 57.0374 30.7415 57.0553 30.7846C57.0751 30.8329 57.0909 30.884 57.1038 30.9376C57.1048 30.9429 57.1068 30.9473 57.1078 30.9517C57.1177 30.9974 57.1256 31.0476 57.1286 31.0977L57.1979 32.0055C57.2039 32.0838 57.1514 32.1559 57.0682 32.1823C57.0434 32.1911 57.0206 32.1946 56.9978 32.1946ZM55.05 29.3631L56.7541 31.4258L56.7313 31.1232C56.7283 31.0898 56.7244 31.0564 56.7174 31.0247C56.7164 31.0212 56.7155 31.0177 56.7145 31.015C56.7056 30.9763 56.6947 30.9403 56.6808 30.9068C56.6699 30.8787 56.656 30.8514 56.6411 30.8259C56.6392 30.8224 56.6362 30.818 56.6352 30.8162L56.6134 30.7828C56.6065 30.7722 56.5995 30.7608 56.5926 30.7511C56.5857 30.7423 56.5787 30.7335 56.5718 30.7256L55.0104 28.8353L55.05 29.3631Z" fill="#FFECE5"/>
<path d="M42.6066 29.4268H50.7317L50.9308 32.0181L41.8438 33.671L42.6066 29.4268Z" fill="#FFECE5"/>
<path d="M41.8434 33.8469C41.7928 33.8469 41.7433 33.8294 41.7067 33.7986C41.6601 33.759 41.6373 33.7009 41.6482 33.6438L42.4111 29.3987C42.4259 29.3133 42.5092 29.25 42.6072 29.25H50.7323C50.8363 29.25 50.9225 29.3213 50.9304 29.4136L51.1296 32.005C51.1365 32.093 51.0691 32.1713 50.9721 32.1897L41.885 33.8434C41.8701 33.8461 41.8563 33.8469 41.8434 33.8469ZM42.7747 29.6027L42.0841 33.4485L50.7204 31.8766L50.546 29.6027H42.7747Z" fill="#FFECE5"/>
<path d="M50.9308 32.0176L53.0728 34.6098L43.9857 36.2635L41.8438 33.6704L50.9308 32.0176Z" fill="#787070"/>
<path d="M43.9853 36.4397C43.9229 36.4397 43.8634 36.4133 43.8258 36.3675L41.6838 33.7744C41.6442 33.726 41.6342 33.6627 41.659 33.6073C41.6838 33.551 41.7383 33.5105 41.8037 33.4982L50.8907 31.8445C50.966 31.8304 51.0443 31.8577 51.0899 31.9131L53.2319 34.5062C53.2715 34.5546 53.2814 34.618 53.2566 34.6734C53.2319 34.7297 53.1774 34.7701 53.112 34.7824L44.0249 36.4361C44.012 36.4388 43.9982 36.4397 43.9853 36.4397ZM42.1861 33.7885L44.0705 36.0693L52.7305 34.4939L50.8462 32.213L42.1861 33.7885Z" fill="#FFECE5"/>
<path d="M52.3548 37.8343C52.1467 37.6724 52.012 37.4437 51.9911 37.1693L51.5859 31.8968L52.3409 31.7596L52.546 34.4231C52.5559 34.5533 52.6738 34.6421 52.8234 34.6421C52.8462 34.6421 52.8699 34.6404 52.8947 34.6351C53.076 34.6017 53.2137 34.4539 53.2018 34.3035L52.9968 31.6399L54.3432 31.3945L54.7494 36.667C54.7553 36.7524 54.7504 36.8359 54.7355 36.9195C54.687 37.1878 54.5324 37.4429 54.3085 37.6461C54.0826 37.8492 53.7893 37.9997 53.4584 38.0604C53.3574 38.078 53.2563 38.0876 53.1592 38.0876C52.8452 38.0885 52.5638 37.9961 52.3548 37.8343Z" fill="#F56630"/>
<path d="M53.1576 38.2649C52.8049 38.2649 52.474 38.1593 52.2253 37.9676L52.2244 37.9667C51.9668 37.7661 51.8181 37.4943 51.7944 37.182L51.3892 31.9095C51.3822 31.8216 51.4496 31.7433 51.5467 31.7248L52.3016 31.5876C52.3571 31.577 52.4156 31.5894 52.4611 31.6202C52.5067 31.6509 52.5354 31.6976 52.5384 31.7486L52.7435 34.4121C52.7475 34.4614 52.801 34.4666 52.8238 34.4666C52.8337 34.4666 52.8446 34.4658 52.8555 34.464C52.9466 34.4473 53.009 34.3725 53.0051 34.3171L52.8 31.6536C52.793 31.5656 52.8604 31.4873 52.9575 31.4689L54.3039 31.2234C54.3604 31.2129 54.4179 31.2252 54.4634 31.256C54.509 31.2868 54.5377 31.3334 54.5407 31.3844L54.9469 36.6569C54.9538 36.7554 54.9479 36.8539 54.9311 36.9489C54.8776 37.2463 54.7062 37.5383 54.4496 37.7714C54.186 38.008 53.8571 38.1681 53.4984 38.235C53.3825 38.2552 53.2686 38.2649 53.1576 38.2649ZM52.4849 37.7028C52.7207 37.884 53.0635 37.9535 53.4182 37.8902C53.6996 37.8383 53.9581 37.7116 54.1662 37.5251C54.3653 37.3448 54.4981 37.1205 54.5387 36.8944C54.5516 36.824 54.5556 36.7528 54.5506 36.6807L54.1603 31.6105L53.2062 31.7838L53.3994 34.2942C53.4182 34.5326 53.2131 34.7587 52.9347 34.8097C52.8981 34.8167 52.8604 34.8202 52.8238 34.8202C52.5652 34.8202 52.366 34.6593 52.3482 34.4376L52.159 31.9746L51.7964 32.0406L52.1897 37.1592C52.2065 37.3764 52.3086 37.5647 52.4849 37.7028Z" fill="#FFECE5"/>
<path d="M51.3955 29.4268H52.1614L52.3407 31.7613L51.5857 31.8985L51.3955 29.4268Z" fill="#FFECE5"/>
<path d="M51.5861 32.0746C51.5435 32.0746 51.5009 32.0623 51.4662 32.0385C51.4207 32.0077 51.3919 31.9611 51.389 31.9101L51.1987 29.4383C51.1948 29.39 51.2146 29.3416 51.2513 29.3064C51.2889 29.2712 51.3414 29.251 51.3959 29.251H52.1608C52.2648 29.251 52.351 29.3222 52.3589 29.4146L52.5382 31.7491C52.5452 31.8371 52.4778 31.9154 52.3807 31.9338L51.6257 32.0711C51.6129 32.0737 51.6 32.0746 51.5861 32.0746ZM51.6079 29.6028L51.7684 31.6858L52.131 31.6198L51.9755 29.6028H51.6079Z" fill="#FFECE5"/>
<path d="M58.4283 32.1959C58.3669 32.1959 58.3065 32.1704 58.2688 32.1238L56.1268 29.5307C56.105 29.5034 56.0912 29.4717 56.0892 29.4383L55.9703 27.8937C55.9673 27.8506 55.9624 27.8083 55.9554 27.7661L55.9485 27.7265C55.9435 27.6993 55.9386 27.6711 55.9326 27.6439C55.9267 27.6166 55.9188 27.5902 55.9108 27.5638L55.898 27.5163C55.8851 27.475 55.8702 27.4336 55.8534 27.394C55.8296 27.3369 55.8009 27.277 55.7642 27.212L55.7513 27.1882C55.7226 27.1398 55.6909 27.0906 55.6552 27.0431C55.6344 27.0149 55.6176 26.992 55.5988 26.9701C55.5344 26.8918 55.5532 26.7818 55.6414 26.7238C55.677 26.7009 55.7177 26.6895 55.7583 26.6895C55.8197 26.6895 55.8791 26.7141 55.9178 26.7616L58.0598 29.3547C58.0796 29.3785 58.0984 29.4031 58.1172 29.4277C58.1202 29.4321 58.1281 29.4436 58.1311 29.448C58.1697 29.5007 58.2084 29.5579 58.2411 29.6142C58.245 29.6195 58.248 29.6248 58.251 29.6309C58.2539 29.6362 58.2579 29.6441 58.2619 29.6529C58.3035 29.7259 58.3382 29.7981 58.3669 29.8676C58.3867 29.9159 58.4045 29.9652 58.4204 30.0153C58.4244 30.0276 58.4273 30.0391 58.4303 30.0514L58.4343 30.0672C58.4442 30.1007 58.4531 30.1341 58.461 30.1693C58.461 30.1701 58.463 30.1754 58.464 30.1807C58.4689 30.2018 58.4729 30.2238 58.4759 30.2458C58.4759 30.2458 58.4868 30.3039 58.4878 30.3153C58.4957 30.3645 58.5006 30.4147 58.5046 30.4657L58.6235 32.0095C58.6294 32.0877 58.5769 32.1599 58.4937 32.1863C58.4739 32.1924 58.4511 32.1959 58.4283 32.1959Z" fill="#FA9874"/>
<path d="M55.7585 26.8667L57.9005 29.4598C57.9183 29.4818 57.9361 29.5038 57.953 29.5267C57.9569 29.5311 57.9589 29.5363 57.9629 29.5407C58.0005 29.5926 58.0362 29.6454 58.0689 29.7008C58.0709 29.7044 58.0729 29.707 58.0748 29.7105C58.0778 29.7158 58.0798 29.722 58.0838 29.7281C58.1204 29.7932 58.1541 29.8592 58.1818 29.9287C58.1997 29.9726 58.2155 30.0184 58.2304 30.0641C58.2353 30.08 58.2393 30.0958 58.2433 30.1116C58.2522 30.1424 58.2611 30.1732 58.268 30.2049C58.269 30.2084 58.27 30.2119 58.271 30.2154C58.2769 30.2418 58.2809 30.2682 58.2859 30.2946C58.2888 30.3095 58.2918 30.3236 58.2938 30.3386C58.3007 30.3843 58.3057 30.4301 58.3096 30.4767L58.4285 32.0213L56.2866 29.429L56.1677 27.8844C56.1637 27.8378 56.1587 27.7912 56.1518 27.7463C56.1498 27.7314 56.1459 27.7173 56.1439 27.7023C56.1389 27.6724 56.133 27.6425 56.127 27.6126C56.1201 27.5809 56.1112 27.5501 56.1023 27.5194C56.0973 27.5035 56.0943 27.4877 56.0894 27.4727C56.0745 27.427 56.0587 27.3813 56.0408 27.3373C56.0121 27.2678 55.9794 27.2018 55.9428 27.1367C55.9378 27.1279 55.9329 27.1191 55.9279 27.1103C55.8952 27.0549 55.8595 27.0021 55.8219 26.9502C55.8001 26.9203 55.7803 26.8931 55.7585 26.8667ZM56.0785 26.6582L55.7585 26.8667L55.4385 27.0751C55.4553 27.0954 55.4712 27.1165 55.486 27.1376C55.5197 27.1842 55.5494 27.2273 55.5742 27.2695L55.5772 27.2748L55.5861 27.2915C55.6198 27.3514 55.6455 27.4041 55.6663 27.4551C55.6802 27.4903 55.6941 27.5273 55.706 27.566C55.707 27.5704 55.708 27.5748 55.7099 27.5792C55.7119 27.588 55.7149 27.5959 55.7169 27.6047C55.7248 27.6311 55.7317 27.6566 55.7377 27.6812C55.7436 27.705 55.7476 27.7296 55.7515 27.7551L55.7555 27.7789C55.7565 27.7832 55.7575 27.7876 55.7575 27.792C55.7634 27.8325 55.7674 27.8703 55.7704 27.9073L55.8893 29.4519C55.8942 29.5188 55.921 29.5821 55.9656 29.6357L58.1075 32.228C58.1838 32.3204 58.3037 32.3714 58.4275 32.3714C58.4731 32.3714 58.5187 32.3644 58.5633 32.3503C58.7287 32.2966 58.8347 32.1524 58.8228 31.9958L58.704 30.4512C58.7 30.3993 58.694 30.3447 58.6861 30.2902C58.6841 30.2761 58.6812 30.2629 58.6792 30.2497L58.6772 30.2383L58.6742 30.2225C58.6703 30.197 58.6653 30.1714 58.6594 30.1459C58.6584 30.1407 58.6564 30.1336 58.6544 30.1266C58.6465 30.0914 58.6366 30.058 58.6277 30.0254L58.6237 30.0113C58.6197 29.9964 58.6158 29.9823 58.6118 29.9682C58.594 29.9128 58.5752 29.8592 58.5544 29.8082C58.5236 29.7343 58.488 29.6595 58.4434 29.5795C58.4384 29.5689 58.4335 29.5592 58.4275 29.5495C58.4236 29.5434 58.4196 29.5355 58.4147 29.5284C58.38 29.4704 58.3423 29.4132 58.3007 29.356C58.2948 29.3472 58.2888 29.3384 58.2829 29.3305C58.2631 29.3041 58.2423 29.2777 58.2215 29.2522L56.0785 26.6582Z" fill="#FFECE5"/>
<path d="M52.8262 29.4268H54.1914L54.343 31.3971L52.9966 31.6417L52.8262 29.4268Z" fill="#FFECE5"/>
<path d="M52.997 31.8177C52.9544 31.8177 52.9118 31.8054 52.8771 31.7817C52.8315 31.7509 52.8028 31.7043 52.7998 31.6532L52.6294 29.4383C52.6254 29.39 52.6453 29.3416 52.6819 29.3064C52.7196 29.2712 52.7721 29.251 52.8266 29.251H54.1908C54.2948 29.251 54.381 29.3222 54.389 29.4146L54.5405 31.385C54.5475 31.4729 54.4801 31.5512 54.383 31.5697L53.0366 31.8142C53.0237 31.8169 53.0099 31.8177 52.997 31.8177ZM53.0386 29.6028L53.1793 31.4298L54.1333 31.2565L54.0065 29.6037H53.0386V29.6028Z" fill="#FFECE5"/>
<path d="M54.8555 29.4268H55.6213L55.7531 31.1403L54.9981 31.2775L54.8555 29.4268Z" fill="#FFECE5"/>
<path d="M54.9985 31.4536C54.9559 31.4536 54.9133 31.4413 54.8786 31.4175C54.8331 31.3867 54.8043 31.3401 54.8014 31.2891L54.6587 29.4383C54.6547 29.39 54.6746 29.3416 54.7112 29.3064C54.7489 29.2712 54.8014 29.251 54.8559 29.251H55.6217C55.7257 29.251 55.8119 29.3222 55.8198 29.4146L55.9516 31.1281C55.9586 31.2161 55.8912 31.2944 55.7941 31.3128L55.0391 31.45C55.0253 31.4527 55.0114 31.4536 54.9985 31.4536ZM55.0679 29.6028L55.1808 31.0657L55.5444 30.9997L55.4374 29.6037H55.0679V29.6028Z" fill="#FFECE5"/>
<path d="M56.2861 29.4268H74.8526L69.6066 58.6313H61.1398L59.8369 65.883L59.6675 66.0079H58.7323C59.401 65.6728 59.8419 65.0324 59.7765 64.3938L58.3964 50.8431H64.9621C65.2484 50.8431 65.5169 50.6443 65.5605 50.3989C65.605 50.1526 65.4079 49.9547 65.1216 49.9547H58.3062L57.9357 46.313H65.7764C66.0628 46.313 66.3313 46.1142 66.3758 45.8679C66.4194 45.6225 66.2233 45.4237 65.9369 45.4237H57.8456L57.475 41.782H66.5908C66.8772 41.782 67.1456 41.5832 67.1902 41.3369C67.2338 41.0915 67.0377 40.8927 66.7513 40.8927H57.3928C57.4057 40.1257 58.123 39.3921 59.0523 39.2223C60.0301 39.0437 60.7722 38.2442 60.7088 37.4349L60.6949 37.2511H67.4052C67.6915 37.2511 67.96 37.0523 68.0046 36.806C68.0482 36.5606 67.852 36.3618 67.5657 36.3618H60.6266L60.2758 31.8062C60.2223 31.1051 59.5833 30.6266 58.7788 30.6266C58.654 30.6266 58.5252 30.638 58.3944 30.6618L56.626 30.9837L56.411 31.0224L56.2861 29.4268Z" fill="#FFECE5"/>
<path d="M59.6679 66.1851H58.7326C58.6424 66.1851 58.5642 66.1314 58.5414 66.054C58.5186 65.9766 58.5572 65.8957 58.6355 65.8561C59.2567 65.5447 59.6361 64.9633 59.5797 64.4109L58.1996 50.8602C58.1946 50.8109 58.2134 50.7625 58.2511 50.7256C58.2887 50.6895 58.3412 50.6684 58.3977 50.6684H64.9634C65.1526 50.6684 65.3379 50.5329 65.3666 50.372C65.3785 50.306 65.3626 50.2479 65.32 50.2031C65.2754 50.1565 65.2051 50.1309 65.1229 50.1309H58.3076C58.2055 50.1309 58.1193 50.0615 58.1104 49.9709L57.7399 46.3292C57.7349 46.2799 57.7537 46.2315 57.7914 46.1946C57.829 46.1585 57.8815 46.1374 57.938 46.1374H65.7787C65.968 46.1374 66.1532 46.0011 66.182 45.8401C66.1939 45.775 66.177 45.7152 66.1354 45.6712C66.0908 45.6246 66.0205 45.5991 65.9392 45.5991H57.8479C57.7458 45.5991 57.6596 45.5296 57.6507 45.439L57.2802 41.7973C57.2752 41.7481 57.294 41.6997 57.3317 41.6627C57.3693 41.6267 57.4218 41.6056 57.4783 41.6056H66.5941C66.7833 41.6056 66.9686 41.4692 66.9973 41.3083C67.0092 41.2432 66.9924 41.1833 66.9508 41.1394C66.9062 41.0927 66.8359 41.0672 66.7546 41.0672H57.3961C57.3426 41.0672 57.2921 41.0488 57.2554 41.0145C57.2177 40.981 57.1979 40.9353 57.1989 40.8887C57.2138 40.0258 57.9945 39.235 59.0169 39.0485C59.8997 38.8875 60.5724 38.1689 60.5159 37.4458L60.5021 37.262C60.4981 37.2136 60.5179 37.1652 60.5546 37.13C60.5922 37.0948 60.6447 37.0746 60.6992 37.0746H67.4095C67.5987 37.0746 67.784 36.9383 67.8127 36.7773C67.8246 36.7122 67.8078 36.6524 67.7662 36.6093C67.7216 36.5627 67.6512 36.5371 67.57 36.5371H60.6308C60.5268 36.5371 60.4406 36.4659 60.4327 36.3735L60.082 31.8179C60.0364 31.2198 59.5024 30.8028 58.7821 30.8028C58.6692 30.8028 58.5533 30.8134 58.4373 30.8345L56.4539 31.196C56.3974 31.2066 56.3399 31.1943 56.2944 31.1635C56.2488 31.1327 56.2201 31.0861 56.2171 31.0351L56.0942 29.4403C56.0903 29.3919 56.1101 29.3435 56.1468 29.3083C56.1844 29.2732 56.2369 29.2529 56.2914 29.2529H74.8579C74.9163 29.2529 74.9708 29.2758 75.0085 29.3145C75.0461 29.3532 75.063 29.4051 75.0531 29.4561L69.8071 58.6607C69.7922 58.746 69.709 58.8094 69.6109 58.8094H61.3135L60.0374 65.9133C60.0295 65.9555 60.0057 65.9933 59.968 66.0206L59.7986 66.1455C59.759 66.1701 59.7144 66.1851 59.6679 66.1851ZM59.3231 65.8332H59.5965L59.654 65.791L59.7322 65.3529C59.6262 65.5262 59.4875 65.689 59.3231 65.8332ZM58.6137 51.0194L59.9502 64.1417L60.9449 58.6044C60.9598 58.5191 61.043 58.4558 61.1411 58.4558H69.4385L74.6211 29.603H56.4985L56.5916 30.809L58.3531 30.4879C58.4948 30.4624 58.6385 30.4492 58.7772 30.4492C59.7005 30.4492 60.4129 31.0139 60.4723 31.7924L60.8102 36.1844H67.5641C67.7612 36.1844 67.9425 36.2557 68.0624 36.3806C68.1813 36.5037 68.2298 36.6647 68.1991 36.8327C68.1397 37.1652 67.7899 37.4265 67.4045 37.4265H60.9063C60.9727 38.3175 60.1593 39.1998 59.0912 39.3942C58.3333 39.5323 57.7181 40.0944 57.6071 40.7163H66.7497C66.9468 40.7163 67.1281 40.7875 67.248 40.9124C67.3669 41.0356 67.4154 41.1965 67.3847 41.3646C67.3253 41.6971 66.9756 41.9583 66.5902 41.9583H57.6913L58.0262 45.2481H65.9363C66.1334 45.2481 66.3147 45.3194 66.4346 45.4443C66.5535 45.5674 66.602 45.7284 66.5713 45.8964C66.5119 46.2289 66.1622 46.4902 65.7768 46.4902H58.153L58.4879 49.78H65.1229C65.32 49.78 65.5013 49.8512 65.6212 49.9753C65.7391 50.0984 65.7877 50.2594 65.7579 50.4274C65.6985 50.7599 65.3497 51.0203 64.9634 51.0203H58.6137V51.0194Z" fill="#FFECE5"/>
<path d="M67.5641 36.3584C67.8505 36.3584 68.0476 36.5572 68.003 36.8026C67.9585 37.0489 67.69 37.2477 67.4036 37.2477H60.6934L60.625 36.3584H67.5641Z" fill="#FA9874"/>
<path d="M67.405 37.4248H60.6947C60.5907 37.4248 60.5045 37.3536 60.4966 37.2612L60.4282 36.3719C60.4243 36.3236 60.4441 36.2752 60.4807 36.24C60.5184 36.2048 60.5709 36.1846 60.6254 36.1846H67.5636C67.7607 36.1846 67.942 36.2558 68.0619 36.3807C68.1808 36.5039 68.2293 36.6648 68.1986 36.8329C68.1392 37.1636 67.7904 37.4248 67.405 37.4248ZM60.879 37.073H67.404C67.5933 37.073 67.7785 36.9367 67.8073 36.7757C67.8192 36.7106 67.8023 36.6508 67.7607 36.6068C67.7161 36.5602 67.6458 36.5347 67.5645 36.5347H60.8384L60.879 37.073Z" fill="#FA9874"/>
<path d="M66.7492 40.8906C67.0355 40.8906 67.2326 41.0894 67.1881 41.3348C67.1435 41.5811 66.875 41.7799 66.5887 41.7799H57.4729L57.3946 41.0076C57.3916 40.9689 57.3906 40.9293 57.3906 40.8906H66.7492Z" fill="#FA9874"/>
<path d="M66.5899 41.956H57.4741C57.372 41.956 57.2858 41.8865 57.2769 41.7959L57.1987 41.0236C57.1947 40.9761 57.1937 40.9321 57.1947 40.8881C57.1967 40.7923 57.2849 40.7148 57.3928 40.7148H66.7514C66.9485 40.7148 67.1298 40.7861 67.2497 40.911C67.3686 41.0341 67.4172 41.1951 67.3864 41.3631C67.325 41.6956 66.9763 41.956 66.5899 41.956ZM57.6544 41.6041H66.5899C66.7791 41.6041 66.9644 41.4678 66.9931 41.3068C67.005 41.2417 66.9882 41.1819 66.9466 41.1379C66.902 41.0913 66.8316 41.0658 66.7504 41.0658H57.6009L57.6544 41.6041Z" fill="#FA9874"/>
<path d="M65.9371 45.4229C66.2234 45.4229 66.4206 45.6216 66.376 45.8671C66.3314 46.1134 66.0629 46.3122 65.7766 46.3122H57.9359L57.8457 45.4229H65.9371Z" fill="#FA9874"/>
<path d="M65.7763 46.4882H57.9356C57.8335 46.4882 57.7473 46.4187 57.7384 46.3281L57.6482 45.4388C57.6433 45.3896 57.6621 45.3412 57.6998 45.3042C57.7374 45.2682 57.7899 45.2471 57.8464 45.2471H65.9378C66.1349 45.2471 66.3162 45.3183 66.4361 45.4432C66.555 45.5664 66.6035 45.7273 66.5728 45.8954C66.5114 46.2279 66.1627 46.4882 65.7763 46.4882ZM58.1169 46.1364H65.7763C65.9655 46.1364 66.1508 46 66.1795 45.8391C66.1914 45.774 66.1746 45.7142 66.1329 45.6702C66.0884 45.6236 66.018 45.598 65.9368 45.598H58.0624L58.1169 46.1364Z" fill="#FA9874"/>
<path d="M65.1219 49.9541C65.4083 49.9541 65.6054 50.152 65.5608 50.3983C65.5173 50.6437 65.2488 50.8425 64.9624 50.8425H58.3968L58.3066 49.9541H65.1219Z" fill="#FA9874"/>
<path d="M64.9621 51.0186H58.3965C58.2944 51.0186 58.2083 50.9491 58.1993 50.8585L58.1092 49.9701C58.1042 49.9208 58.1231 49.8724 58.1607 49.8355C58.1983 49.7994 58.2509 49.7783 58.3073 49.7783H65.1226C65.3198 49.7783 65.5011 49.8496 65.621 49.9736C65.7389 50.0967 65.7874 50.2577 65.7577 50.4257C65.6973 50.7582 65.3475 51.0186 64.9621 51.0186ZM58.5778 50.6667H64.9621C65.1514 50.6667 65.3366 50.5313 65.3654 50.3703C65.3773 50.3043 65.3614 50.2463 65.3188 50.2014C65.2742 50.1548 65.2039 50.1293 65.1216 50.1293H58.5233L58.5778 50.6667Z" fill="#FA9874"/>
<path d="M74.8534 29.4268L76.9954 32.019L71.7494 61.2245L69.6074 58.6313L74.8534 29.4268Z" fill="#FCD2C2"/>
<path d="M71.7491 61.4001C71.6867 61.4001 71.6272 61.3738 71.5896 61.328L69.4476 58.7349C69.4159 58.697 69.403 58.6495 69.4119 58.6029L74.6579 29.3983C74.6708 29.328 74.7292 29.2717 74.8065 29.255C74.8838 29.2382 74.966 29.2646 75.0126 29.3218L77.1546 31.915C77.1863 31.9528 77.1992 32.0003 77.1902 32.0469L71.9443 61.2515C71.9314 61.3219 71.8729 61.3781 71.7957 61.3949C71.7798 61.3984 71.764 61.4001 71.7491 61.4001ZM69.8162 58.5862L71.6282 60.78L76.787 32.0636L74.975 29.8698L69.8162 58.5862Z" fill="#FFECE5"/>
<path d="M69.6066 58.6309L59.8379 65.8825L61.1397 58.6309H69.6066Z" fill="#FA9874"/>
<path d="M59.8383 66.0586C59.8046 66.0586 59.7709 66.0507 59.7402 66.0357C59.6679 65.9997 59.6292 65.9275 59.6421 65.8554L60.9449 58.6037C60.9598 58.5184 61.043 58.4551 61.1411 58.4551H69.608C69.6912 58.4551 69.7655 58.5017 69.7942 58.5712C69.8229 58.6407 69.7992 58.719 69.7348 58.7665L59.9661 66.0181C59.9284 66.0454 59.8828 66.0586 59.8383 66.0586ZM61.3095 58.8069L60.1167 65.4464L69.0611 58.8069H61.3095Z" fill="#FFECE5"/>
<path d="M69.6066 58.6318L71.7486 61.225L61.9789 68.4767L59.8379 65.8835L69.6066 58.6318Z" fill="#FA9874"/>
<path d="M61.9793 68.6523C61.9714 68.6523 61.9635 68.6523 61.9556 68.6514C61.9011 68.6453 61.8525 68.6198 61.8198 68.5811L59.6779 65.9879C59.6164 65.9132 59.6303 65.8085 59.7106 65.7487L69.4793 58.497C69.5209 58.4662 69.5763 58.4513 69.6298 58.4574C69.6843 58.4636 69.7329 58.4891 69.7656 58.5278L71.9076 61.1209C71.969 61.1957 71.9551 61.3004 71.8749 61.3602L62.1072 68.611C62.0715 68.6382 62.0259 68.6523 61.9793 68.6523ZM60.1078 65.9123L62.015 68.2204L71.4796 61.1948L69.5724 58.8867L60.1078 65.9123Z" fill="#FFECE5"/>
<path d="M59.8384 65.8828L61.9794 68.476L59.668 66.0086L59.8384 65.8828Z" fill="#FCD2C2"/>
<path d="M61.9802 68.6517C61.9237 68.6517 61.8672 68.6297 61.8276 68.5884L59.5162 66.121C59.4825 66.085 59.4666 66.0392 59.4716 65.9926C59.4765 65.946 59.5023 65.9029 59.5419 65.8739L59.7114 65.749C59.753 65.7182 59.8075 65.7032 59.8619 65.7094C59.9164 65.7155 59.965 65.741 59.9977 65.7797L62.1397 68.372C62.2031 68.4485 62.1862 68.5558 62.102 68.6148C62.0654 68.6394 62.0228 68.6517 61.9802 68.6517Z" fill="#FFECE5"/>
<path d="M59.6687 66.0088L61.9801 68.4761L60.8754 68.6011L58.7334 66.0088H59.6687Z" fill="#FCD2C2"/>
<path d="M60.875 68.7769C60.8126 68.7769 60.7532 68.7505 60.7155 68.7048L58.5735 66.1117C58.529 66.058 58.523 65.9876 58.5567 65.9278C58.5904 65.8689 58.6588 65.8311 58.7331 65.8311H59.6683C59.7268 65.8311 59.7832 65.8539 59.8209 65.8944L62.1323 68.3617C62.1789 68.411 62.1908 68.4787 62.164 68.5386C62.1373 68.5984 62.0768 68.6406 62.0045 68.6485L60.8988 68.7734C60.8919 68.776 60.883 68.7769 60.875 68.7769ZM59.1244 66.1847L60.9662 68.4136L61.5973 68.3424L59.5762 66.1847H59.1244Z" fill="#FFECE5"/>
<path d="M59.0313 65.8281C58.9867 65.8598 58.9401 65.8906 58.8926 65.9196C58.843 65.9495 58.7915 65.9785 58.739 66.0049C58.736 66.0067 58.7341 66.0076 58.7311 66.0093C58.6756 66.0375 58.6191 66.063 58.5607 66.0859C58.4864 66.1158 58.4091 66.1422 58.3308 66.1641C58.2625 66.1835 58.1931 66.1993 58.1228 66.2125L35.9431 70.2491C35.8123 70.2729 35.6835 70.2843 35.5587 70.2843C35.0435 70.2843 34.5947 70.0882 34.3262 69.7618L36.4682 72.3541C36.7376 72.6804 37.1854 72.8766 37.7006 72.8766C37.8255 72.8766 37.9543 72.8652 38.085 72.8414L60.2648 68.8048C60.3351 68.7916 60.4054 68.7758 60.4728 68.7564C60.5511 68.7344 60.6284 68.708 60.7027 68.6781C60.7611 68.6544 60.8176 68.6289 60.8731 68.6016C60.876 68.5998 60.878 68.599 60.881 68.5972C60.9335 68.5708 60.985 68.5418 61.0346 68.5119C61.0821 68.4828 61.1287 68.4521 61.1733 68.4204L59.0313 65.8281Z" fill="#EB5017"/>
<path d="M37.7011 73.0521C37.1285 73.0521 36.6202 72.8357 36.3081 72.4584L34.1661 69.8652C34.1018 69.787 34.1206 69.677 34.2087 69.6189C34.2969 69.5618 34.4208 69.5785 34.4862 69.6568C34.7229 69.9426 35.1133 70.1071 35.5591 70.1071C35.6721 70.1071 35.788 70.0966 35.9039 70.0755L58.0836 66.0389C58.147 66.0274 58.2104 66.0125 58.2719 65.9949C58.3422 65.9746 58.4125 65.9509 58.4799 65.9236C58.5324 65.9025 58.5839 65.8788 58.6345 65.8541C58.689 65.8269 58.7355 65.8005 58.7811 65.7732C58.8237 65.7468 58.8663 65.7195 58.9069 65.6896C58.9495 65.6597 59.003 65.6457 59.0575 65.6518C59.111 65.658 59.1596 65.6835 59.1923 65.7222L61.3342 68.3145C61.3967 68.3901 61.3818 68.4965 61.2996 68.5555C61.251 68.5907 61.2005 68.6241 61.149 68.6557C61.0945 68.6892 61.038 68.72 60.9815 68.749L60.9726 68.7534C60.9122 68.7833 60.8498 68.8114 60.7864 68.837C60.7041 68.8695 60.6199 68.8985 60.5347 68.9223C60.4594 68.9434 60.3831 68.961 60.3059 68.9751L38.1261 73.0117C37.9835 73.0389 37.8408 73.0521 37.7011 73.0521ZM35.1103 70.4124L36.6281 72.2499C36.8649 72.5358 37.2553 72.7003 37.7011 72.7003C37.8141 72.7003 37.93 72.6897 38.0459 72.6686L60.2256 68.632C60.289 68.6206 60.3524 68.6056 60.4138 68.588C60.4842 68.5687 60.5545 68.544 60.6219 68.5168C60.6744 68.4957 60.7269 68.4719 60.7765 68.4473C60.82 68.4253 60.8597 68.4042 60.8963 68.3822L58.9892 66.0732C58.9396 66.1022 58.8891 66.1303 58.8376 66.1567C58.8366 66.1567 58.8287 66.1611 58.8277 66.162C58.7682 66.1919 58.7058 66.2201 58.6424 66.2456C58.5612 66.2781 58.476 66.3071 58.3907 66.3309C58.3155 66.352 58.2392 66.3696 58.1619 66.3837L35.9822 70.4203C35.684 70.4748 35.3828 70.4713 35.1103 70.4124Z" fill="#FFECE5"/>
<path d="M59.7767 64.394C59.8421 65.0326 59.4012 65.673 58.7324 66.0081C58.5452 66.1022 58.3401 66.1717 58.1241 66.2113L35.9444 70.2479C35.8136 70.2717 35.6848 70.2831 35.56 70.2831C34.7644 70.2831 34.1304 69.816 34.064 69.1255L31.0085 37.1299C30.9461 36.3206 31.6882 35.5193 32.6661 35.3416L41.8443 33.6712L50.9314 32.0175L51.3366 37.2908C51.3683 37.6919 51.5684 38.0324 51.8745 38.2707C52.1817 38.5082 52.5958 38.6455 53.0585 38.6463C53.2021 38.6463 53.3498 38.6323 53.5003 38.605C53.9848 38.517 54.4227 38.2936 54.7546 37.9945C55.0855 37.6955 55.3144 37.319 55.3857 36.9214C55.4075 36.7991 55.4145 36.6742 55.4045 36.5502L54.9993 31.2777L55.7543 31.1405L56.0049 34.4092C56.0148 34.5394 56.1337 34.6273 56.2833 34.6273C56.535 34.5877 56.6727 34.4391 56.6608 34.2895L56.4092 31.0208L56.6241 30.9821L58.3926 30.6602C58.5234 30.6364 58.6522 30.625 58.777 30.625C59.5825 30.625 60.2215 31.1035 60.274 31.8046L60.6248 36.3602L60.6931 37.2495L60.707 37.4333C60.7694 38.2426 60.0273 39.0431 59.0505 39.2207C58.1212 39.3905 57.4039 40.1232 57.391 40.8912C57.39 40.9299 57.391 40.9694 57.3949 41.0081L57.4732 41.7805L57.8438 45.4221L57.9339 46.3114L58.3044 49.9531L58.3946 50.8415L59.7767 64.394Z" fill="#F56630"/>
<path d="M35.5604 70.4592C34.6518 70.4592 33.9405 69.905 33.8672 69.1406L30.8117 37.145C30.7424 36.2495 31.5568 35.3646 32.6268 35.1693L50.8921 31.8461C50.9485 31.8355 51.006 31.8478 51.0516 31.8786C51.0972 31.9094 51.1259 31.956 51.1289 32.007L51.5341 37.2804C51.5608 37.62 51.7283 37.9252 52.0047 38.1398C52.2801 38.3527 52.6546 38.4706 53.0588 38.4714C53.1866 38.4714 53.3224 38.4591 53.4611 38.4336C53.8881 38.3562 54.2972 38.1565 54.6133 37.8724C54.9224 37.5936 55.1265 37.2461 55.1899 36.8951C55.2097 36.7826 55.2157 36.6717 55.2067 36.5644L54.8015 31.2901C54.7946 31.2022 54.862 31.1239 54.9591 31.1054L55.714 30.9682C55.7695 30.9576 55.8279 30.97 55.8735 31.0007C55.9191 31.0315 55.9478 31.0782 55.9508 31.1292L56.2014 34.3979C56.2044 34.4383 56.2421 34.4489 56.2678 34.4515C56.4016 34.426 56.467 34.3583 56.462 34.3029L56.2104 31.0342C56.2034 30.9462 56.2708 30.8679 56.3679 30.8494L58.3514 30.4879C58.494 30.4624 58.6367 30.4492 58.7754 30.4492C59.6988 30.4492 60.4111 31.0139 60.4706 31.7924L60.9035 37.422C60.9729 38.314 60.1585 39.1989 59.0885 39.3942C58.2582 39.5455 57.5994 40.2043 57.5875 40.8948C57.5865 40.9291 57.5875 40.9626 57.5905 40.9969L59.9712 64.3792C60.0416 65.067 59.5819 65.7839 58.8269 66.1622C58.6169 66.2677 58.393 66.3425 58.1601 66.3847L35.9804 70.4214C35.8427 70.446 35.7001 70.4592 35.5604 70.4592ZM50.7484 32.2313L32.706 35.5141C31.8233 35.6751 31.1506 36.3946 31.207 37.1186L34.2625 69.1116C34.319 69.6983 34.852 70.1082 35.5604 70.1082C35.6733 70.1082 35.7892 70.0976 35.9051 70.0765L58.0848 66.0399C58.2761 66.0047 58.4613 65.9432 58.6357 65.8561C59.2569 65.5447 59.6363 64.9641 59.5799 64.4108L57.1981 41.025C57.1942 40.9775 57.1932 40.9335 57.1942 40.8895C57.209 40.0266 57.9907 39.2358 59.0122 39.0494C59.8949 38.8884 60.5676 38.1697 60.5112 37.4467L60.0782 31.817C60.0326 31.2189 59.4986 30.802 58.7784 30.802C58.6654 30.802 58.5495 30.8125 58.4336 30.8336L56.6195 31.1644L56.8593 34.2791C56.8791 34.5298 56.6522 34.7497 56.3184 34.8016C56.3075 34.8034 56.2956 34.8043 56.2837 34.8043C56.0251 34.8043 55.824 34.6433 55.8071 34.4216L55.5713 31.3535L55.2077 31.4195L55.6011 36.5389C55.612 36.6717 55.605 36.8107 55.5803 36.9497C55.504 37.3719 55.2612 37.7871 54.8947 38.1178C54.5241 38.4521 54.0426 38.6861 53.5393 38.7776C53.3739 38.8075 53.2114 38.8224 53.0578 38.8224C52.5575 38.8215 52.0909 38.6729 51.7431 38.4037C51.3864 38.1266 51.1715 37.7361 51.1378 37.3033L50.7484 32.2313Z" fill="#FFECE5"/>
<path d="M53.0577 38.8219C52.5583 38.821 52.0917 38.6723 51.744 38.4032C51.3873 38.1261 51.1723 37.7355 51.1386 37.3028L50.4917 28.8909C50.4778 28.7132 50.4867 28.5311 50.5194 28.3508C50.6195 27.7931 50.9405 27.2459 51.4239 26.8105C51.9124 26.369 52.5484 26.0593 53.2152 25.9379C53.4292 25.8992 53.6422 25.8799 53.8493 25.8799C54.5051 25.8799 55.1184 26.0752 55.5752 26.4288C56.0428 26.7912 56.3241 27.3031 56.3658 27.8696L56.8591 34.2768C56.878 34.5152 56.6739 34.7413 56.3945 34.7923C56.3568 34.7984 56.3202 34.802 56.2845 34.802C56.0259 34.802 55.8258 34.641 55.808 34.4193L55.3156 28.0121C55.2878 27.6576 55.1214 27.3524 54.8331 27.129C54.5487 26.9082 54.1643 26.7868 53.7492 26.7868C53.6155 26.7868 53.4768 26.8 53.3361 26.8255C52.8912 26.9064 52.4821 27.1061 52.1531 27.4025C51.8361 27.6884 51.6261 28.0447 51.5617 28.4053C51.5409 28.5214 51.5349 28.6366 51.5438 28.7457L52.1908 37.1576C52.2076 37.3758 52.3097 37.564 52.487 37.7021C52.6634 37.8376 52.9021 37.9123 53.1587 37.9123C53.2429 37.9123 53.3311 37.9044 53.4193 37.8886C53.7007 37.8367 53.9593 37.71 54.1673 37.5235C54.3664 37.3432 54.4992 37.1189 54.5398 36.8928C54.5527 36.8234 54.5567 36.7512 54.5517 36.6791L53.9335 28.6498C53.9266 28.5672 53.8899 28.4977 53.8225 28.4458C53.7552 28.3939 53.662 28.364 53.562 28.364C53.5263 28.3648 53.4886 28.3684 53.453 28.3745C53.3361 28.3965 53.2281 28.4493 53.1419 28.5276C53.0577 28.6032 53.0032 28.6947 52.9863 28.7862C52.9814 28.8117 52.9804 28.8407 52.9824 28.8697L53.3995 34.2918C53.4183 34.5302 53.2132 34.7562 52.9348 34.8072C52.8982 34.8143 52.8605 34.8178 52.8239 34.8178C52.5653 34.8178 52.3661 34.6568 52.3483 34.4352L51.9312 29.014C51.9243 28.9234 51.9292 28.8284 51.9461 28.7308C51.9976 28.4422 52.164 28.159 52.4127 27.9347C52.6614 27.7086 52.9883 27.5494 53.3321 27.4861C53.446 27.4667 53.556 27.4562 53.661 27.4562C54.0038 27.4562 54.3238 27.5591 54.5646 27.7447C54.8123 27.9356 54.9609 28.2056 54.9837 28.5047L55.6009 36.5357C55.6118 36.6685 55.6049 36.8075 55.5801 36.9465C55.5048 37.3687 55.2611 37.7839 54.8945 38.1146C54.524 38.448 54.0435 38.6829 53.5392 38.7744C53.3747 38.8069 53.2122 38.8219 53.0577 38.8219Z" fill="#FA9874"/>
<path d="M53.8486 26.0569C54.4727 26.0569 55.0305 26.2417 55.4447 26.5627C55.8578 26.8829 56.1283 27.3403 56.1679 27.883L56.2868 29.4277L56.4096 31.0224L56.6613 34.2911C56.6732 34.4398 56.5355 34.5893 56.3542 34.6228C56.3304 34.6272 56.3066 34.6289 56.2838 34.6289C56.1342 34.6289 56.0153 34.541 56.0054 34.4108L55.7538 31.1421L55.622 29.4285L55.512 28.0035C55.4803 27.5892 55.2772 27.2436 54.9622 26.9999C54.6471 26.7554 54.2211 26.6146 53.7485 26.6146C53.6029 26.6146 53.4503 26.6287 53.2957 26.6568C52.7964 26.7483 52.3526 26.9753 52.0107 27.2823C51.6699 27.5892 51.4371 27.9754 51.3648 28.3809C51.342 28.5058 51.3341 28.6342 51.345 28.7618L51.3965 29.4285L51.5867 31.9003L51.9919 37.1728C52.0127 37.4473 52.1475 37.6751 52.3555 37.8369C52.5646 37.9979 52.8459 38.0911 53.158 38.0911C53.2551 38.0911 53.3562 38.0823 53.4572 38.0639C53.7881 38.0032 54.0814 37.8528 54.3073 37.6496C54.5322 37.4464 54.6867 37.1913 54.7343 36.923C54.7492 36.8403 54.7541 36.7559 54.7482 36.6705L54.342 31.398L54.1904 29.4277L54.1299 28.6404C54.119 28.5049 54.0537 28.395 53.9516 28.3158C53.8486 28.2367 53.7119 28.1909 53.5603 28.1909C53.5117 28.1918 53.4632 28.1962 53.4126 28.205C53.2502 28.2349 53.1095 28.307 52.9985 28.4073C52.8885 28.5067 52.8123 28.6316 52.7885 28.7618C52.7815 28.8023 52.7796 28.8436 52.7825 28.8849L52.8241 29.4285L52.9946 31.6435L53.1996 34.307C53.2115 34.4574 53.0738 34.6052 52.8925 34.6386C52.8677 34.643 52.844 34.6448 52.8212 34.6448C52.6716 34.6448 52.5537 34.5559 52.5438 34.4257L52.3387 31.7622L52.1594 29.4277L52.1267 29.0046C52.1197 28.9236 52.1257 28.8418 52.1395 28.7618C52.1861 28.5023 52.3357 28.256 52.5517 28.0616C52.7667 27.8663 53.054 27.7203 53.37 27.6623C53.4681 27.6455 53.5642 27.6359 53.6584 27.6359C53.9615 27.6359 54.231 27.7256 54.4311 27.8813C54.6322 28.0361 54.763 28.2586 54.7828 28.5208L54.8522 29.4285L54.9949 31.2793L55.4001 36.5518C55.411 36.6758 55.403 36.8007 55.3813 36.923C55.3099 37.3206 55.0811 37.6962 54.7501 37.9961C54.4183 38.2952 53.9803 38.5186 53.4959 38.6066C53.3453 38.6339 53.1977 38.6479 53.054 38.6479C52.5913 38.6471 52.1762 38.5098 51.8701 38.2723C51.5629 38.034 51.3638 37.6936 51.3321 37.2924L50.9308 32.0182L50.7317 29.4268L50.6901 28.8797C50.6772 28.7125 50.6861 28.5445 50.7159 28.3792C50.812 27.8443 51.1191 27.3377 51.5659 26.9348C52.0127 26.531 52.6022 26.2302 53.2551 26.1115C53.4562 26.0745 53.6554 26.0569 53.8486 26.0569ZM53.8486 25.7051C53.6286 25.7051 53.4027 25.7253 53.1759 25.7658C52.4695 25.8942 51.7977 26.2214 51.2816 26.6876C50.7703 27.1485 50.4295 27.7291 50.3235 28.3229C50.2888 28.5164 50.2789 28.7117 50.2938 28.9034L50.3354 29.4505L50.5345 32.0419L50.9398 37.3153C50.9784 37.7956 51.2172 38.2284 51.6125 38.5362C51.9969 38.8336 52.5101 38.9972 53.057 38.9989C53.2254 38.9989 53.4008 38.9831 53.5781 38.9505C54.121 38.852 54.6382 38.6005 55.0365 38.2424C55.4318 37.8853 55.6943 37.4358 55.7766 36.9784C55.8043 36.8254 55.8112 36.6732 55.7993 36.5254L55.6517 34.6034C55.7478 34.8268 55.9925 34.9799 56.2838 34.9799C56.3324 34.9799 56.3819 34.9755 56.4314 34.9667C56.8089 34.8981 57.0824 34.5902 57.0566 34.2656L56.8049 30.9978L56.6821 29.403L56.5632 27.8584C56.5176 27.2453 56.2125 26.6903 55.7052 26.2971C55.2118 25.9153 54.552 25.7051 53.8486 25.7051ZM51.7423 28.7592L51.7403 28.7363C51.7324 28.6378 51.7373 28.5375 51.7561 28.4346C51.8146 28.1091 52.0058 27.7872 52.2931 27.5268C52.5943 27.2559 52.9688 27.0738 53.375 26.999C53.5018 26.9761 53.6276 26.9638 53.7485 26.9638C54.1151 26.9638 54.4539 27.0703 54.7016 27.262C54.9503 27.4547 55.0939 27.7186 55.1167 28.0247L55.1326 28.2367C55.0593 27.9948 54.9087 27.7784 54.6937 27.613C54.4183 27.3992 54.0517 27.2814 53.6613 27.2814C53.5434 27.2814 53.4206 27.2919 53.2967 27.3139C52.9103 27.3852 52.5477 27.5611 52.2713 27.8127C51.9939 28.0625 51.8096 28.3792 51.7512 28.7037C51.7482 28.7231 51.7452 28.7407 51.7423 28.7592ZM52.8241 34.9948C52.8747 34.9948 52.9252 34.9904 52.9747 34.9808C53.3492 34.9122 53.6227 34.6052 53.5979 34.2806L53.3928 31.6171L53.2224 29.4022L53.1808 28.8585C53.1798 28.8436 53.1798 28.8278 53.1828 28.8146C53.1927 28.76 53.2294 28.7002 53.2829 28.6518C53.3423 28.5973 53.4156 28.5621 53.4959 28.5472C53.5157 28.5436 53.5395 28.541 53.5662 28.541C53.6177 28.5419 53.6613 28.5551 53.694 28.5797C53.7198 28.5999 53.7337 28.6263 53.7366 28.6633L53.7971 29.4497L53.9486 31.42L54.3548 36.6925C54.3588 36.7488 54.3558 36.8078 54.3449 36.8658C54.3103 37.0558 54.1973 37.2467 54.0259 37.4015C53.8466 37.5634 53.6217 37.6724 53.378 37.7182C53.3056 37.7314 53.2304 37.7375 53.159 37.7375C52.95 37.7375 52.7568 37.6777 52.6161 37.5695C52.4814 37.464 52.4021 37.3179 52.3882 37.1473L52.194 34.6201C52.2892 34.8427 52.5339 34.9948 52.8241 34.9948Z" fill="#FFECE5"/>
<path d="M81.9559 28.2939L82.1511 29.3785C82.269 30.0286 82.7713 30.5379 83.4946 30.7384L84.7023 31.0727L83.3747 31.407C82.5801 31.6075 81.8945 32.1168 81.5428 32.7669L80.9573 33.8514L80.7611 32.7669C80.6432 32.1168 80.1409 31.6075 79.4177 31.407L78.2109 31.0727L79.5375 30.7384C80.3321 30.5379 81.0177 30.0286 81.3694 29.3785L81.9559 28.2939Z" fill="#F56630"/>
<path d="M40.4073 24.0322L40.5569 24.8635C40.6471 25.3622 41.0325 25.7528 41.5873 25.9058L42.5126 26.1618L41.4951 26.4187C40.8858 26.5717 40.3597 26.9623 40.0903 27.4601L39.6415 28.2923L39.4919 27.4601C39.4017 26.9614 39.0163 26.5717 38.4615 26.4187L37.5361 26.1618L38.5536 25.9058C39.1629 25.7528 39.689 25.3613 39.9585 24.8635L40.4073 24.0322Z" fill="#F56630"/>
<path d="M65.684 52.8096L65.7673 53.2731C65.8178 53.5502 66.0328 53.7684 66.3419 53.8537L66.8571 53.9962L66.2904 54.1387C65.9505 54.2249 65.6573 54.4422 65.5067 54.7192L65.256 55.1828L65.1728 54.7192C65.1223 54.4422 64.9083 54.224 64.5992 54.1387L64.083 53.9962L64.6507 53.8537C64.9905 53.7675 65.2828 53.5502 65.4334 53.2731L65.684 52.8096Z" fill="#F56630"/>
<path d="M28.143 59.0195L28.2262 59.4831C28.2768 59.7611 28.4917 59.9783 28.8009 60.0637L29.316 60.2062L28.7493 60.3487C28.4095 60.4349 28.1163 60.6521 27.9657 60.9301L27.716 61.3937L27.6328 60.9301C27.5832 60.6521 27.3682 60.4349 27.0591 60.3487L26.5439 60.2062L27.1106 60.0637C27.4505 59.9783 27.7437 59.7611 27.8933 59.4831L28.143 59.0195Z" fill="#F56630"/>
</svg>
