<svg width="49" height="48" viewBox="0 0 49 48" fill="none" xmlns="http://www.w3.org/2000/svg">
<path d="M29.1219 47.5507C25.7138 48.2196 22.201 48.1408 18.8263 47.3197C15.4516 46.4986 12.2952 44.9549 9.5753 42.795C6.85536 40.6352 4.63661 37.9107 3.07226 34.8098C1.50791 31.7089 0.635236 28.3053 0.514504 24.8343C0.393773 21.3632 1.02786 17.9072 2.37298 14.7051C3.71809 11.503 5.74219 8.63095 8.30549 6.28735C10.8688 3.94375 13.9102 2.18442 17.2198 1.13085C20.5293 0.0772829 24.0281 -0.245417 27.4745 0.185034L27.0777 3.36204C24.091 2.98901 21.059 3.26866 18.191 4.18168C15.3229 5.0947 12.6872 6.61933 10.4659 8.65029C8.24455 10.6812 6.49048 13.1701 5.32481 15.9451C4.15913 18.72 3.60963 21.7149 3.71426 24.723C3.81889 27.731 4.57514 30.6805 5.9308 33.3677C7.28646 36.055 9.20922 38.416 11.5663 40.2877C13.9234 42.1594 16.6587 43.4972 19.5832 44.2088C22.5077 44.9203 25.5518 44.9886 28.5054 44.409L29.1219 47.5507Z" fill="#D9D9D9"/>
<path d="M19.8781 0.449253C25.1652 -0.588364 30.6476 0.183266 35.4429 2.63993C40.2382 5.0966 44.0674 9.09538 46.314 13.9926C48.5607 18.8898 49.0941 24.4005 47.8284 29.6377C46.5628 34.8749 43.5717 39.5339 39.3366 42.8647C35.1015 46.1954 29.8688 48.0043 24.4809 48C19.0929 47.9957 13.8632 46.1785 9.63338 42.841C5.40361 39.5035 2.41992 34.8398 1.16261 29.6006C-0.0947037 24.3614 0.447498 18.8515 2.70194 13.9579L5.60989 15.2975C3.65619 19.5383 3.18632 24.3131 4.27591 28.8534C5.36549 33.3937 7.95114 37.4353 11.6166 40.3275C15.2821 43.2198 19.8143 44.7946 24.4834 44.7983C29.1526 44.802 33.6872 43.2345 37.3573 40.348C41.0274 37.4616 43.6195 33.4242 44.7163 28.8856C45.8132 24.3471 45.3509 19.5715 43.4039 15.3276C41.457 11.0837 38.1387 7.61838 33.9831 5.48944C29.8275 3.36051 25.0764 2.69182 20.4946 3.59101L19.8781 0.449253Z" fill="#2ECC71"/>
<path d="M11.7356 25.5192C10.6263 24.9646 10.0716 24.0899 10.0716 22.8952C10.0716 22.3192 10.2156 21.7912 10.5036 21.3112C10.7916 20.8312 11.2236 20.4526 11.7996 20.1752C12.3756 19.8872 13.0796 19.7432 13.9116 19.7432C14.733 19.7432 15.4316 19.8872 16.0076 20.1752C16.5943 20.4526 17.0316 20.8312 17.3196 21.3112C17.6076 21.7912 17.7516 22.3192 17.7516 22.8952C17.7516 23.4926 17.597 24.0206 17.2876 24.4792C16.989 24.9272 16.589 25.2739 16.0876 25.5192C16.6956 25.7432 17.1756 26.1112 17.5276 26.6232C17.8796 27.1246 18.0556 27.7166 18.0556 28.3992C18.0556 29.0926 17.8796 29.7059 17.5276 30.2392C17.1756 30.7726 16.685 31.1832 16.0556 31.4712C15.4263 31.7592 14.7116 31.9032 13.9116 31.9032C13.1116 31.9032 12.397 31.7592 11.7676 31.4712C11.149 31.1832 10.6636 30.7726 10.3116 30.2392C9.95962 29.7059 9.78362 29.0926 9.78362 28.3992C9.78362 27.7059 9.95962 27.1086 10.3116 26.6072C10.6636 26.1059 11.1383 25.7432 11.7356 25.5192ZM16.0076 23.1192C16.0076 22.5219 15.821 22.0632 15.4476 21.7432C15.0743 21.4232 14.5623 21.2632 13.9116 21.2632C13.2716 21.2632 12.765 21.4232 12.3916 21.7432C12.0183 22.0632 11.8316 22.5272 11.8316 23.1352C11.8316 23.6686 12.0236 24.1059 12.4076 24.4472C12.8023 24.7779 13.3036 24.9432 13.9116 24.9432C14.5196 24.9432 15.021 24.7726 15.4156 24.4312C15.8103 24.0899 16.0076 23.6526 16.0076 23.1192ZM13.9116 26.3192C13.2076 26.3192 12.6316 26.4952 12.1836 26.8472C11.7463 27.1886 11.5276 27.6846 11.5276 28.3352C11.5276 28.9432 11.741 29.4392 12.1676 29.8232C12.5943 30.1966 13.1756 30.3832 13.9116 30.3832C14.637 30.3832 15.2076 30.1912 15.6236 29.8072C16.0503 29.4232 16.2636 28.9326 16.2636 28.3352C16.2636 27.6952 16.045 27.1992 15.6076 26.8472C15.181 26.4952 14.6156 26.3192 13.9116 26.3192ZM27.1707 21.5192H21.8107V24.7032C22.0347 24.4046 22.3654 24.1539 22.8027 23.9512C23.2507 23.7486 23.7254 23.6472 24.2267 23.6472C25.1227 23.6472 25.8481 23.8392 26.4027 24.2232C26.9681 24.6072 27.3681 25.0926 27.6027 25.6792C27.8481 26.2659 27.9707 26.8846 27.9707 27.5352C27.9707 28.3246 27.8161 29.0286 27.5067 29.6472C27.2081 30.2552 26.7547 30.7352 26.1467 31.0872C25.5494 31.4392 24.8134 31.6152 23.9387 31.6152C22.7761 31.6152 21.8427 31.3272 21.1387 30.7512C20.4347 30.1752 20.0134 29.4126 19.8747 28.4632H21.6507C21.7681 28.9646 22.0294 29.3646 22.4347 29.6632C22.8401 29.9512 23.3467 30.0952 23.9547 30.0952C24.7121 30.0952 25.2774 29.8659 25.6507 29.4072C26.0347 28.9486 26.2267 28.3406 26.2267 27.5832C26.2267 26.8152 26.0347 26.2286 25.6507 25.8232C25.2667 25.4072 24.7014 25.1992 23.9547 25.1992C23.4321 25.1992 22.9894 25.3326 22.6267 25.5992C22.2747 25.8552 22.0187 26.2072 21.8587 26.6552H20.1307V19.9192H27.1707V21.5192ZM29.2615 22.7672C29.2615 21.9886 29.4855 21.3806 29.9335 20.9432C30.3922 20.4952 30.9788 20.2712 31.6935 20.2712C32.4082 20.2712 32.9895 20.4952 33.4375 20.9432C33.8962 21.3806 34.1255 21.9886 34.1255 22.7672C34.1255 23.5459 33.8962 24.1592 33.4375 24.6072C32.9895 25.0552 32.4082 25.2792 31.6935 25.2792C30.9788 25.2792 30.3922 25.0552 29.9335 24.6072C29.4855 24.1592 29.2615 23.5459 29.2615 22.7672ZM39.0215 20.4792L32.6375 31.6152H30.8455L37.2295 20.4792H39.0215ZM31.6935 21.3752C31.0215 21.3752 30.6855 21.8392 30.6855 22.7672C30.6855 23.7059 31.0215 24.1752 31.6935 24.1752C32.0135 24.1752 32.2588 24.0632 32.4295 23.8392C32.6108 23.6046 32.7015 23.2472 32.7015 22.7672C32.7015 21.8392 32.3655 21.3752 31.6935 21.3752ZM35.7735 29.3112C35.7735 28.5326 35.9975 27.9246 36.4455 27.4872C36.9042 27.0392 37.4908 26.8152 38.2055 26.8152C38.9095 26.8152 39.4855 27.0392 39.9335 27.4872C40.3922 27.9246 40.6215 28.5326 40.6215 29.3112C40.6215 30.0899 40.3922 30.7032 39.9335 31.1512C39.4855 31.5992 38.9095 31.8232 38.2055 31.8232C37.4908 31.8232 36.9042 31.5992 36.4455 31.1512C35.9975 30.7032 35.7735 30.0899 35.7735 29.3112ZM38.1895 27.9192C37.5175 27.9192 37.1815 28.3832 37.1815 29.3112C37.1815 30.2392 37.5175 30.7032 38.1895 30.7032C38.8615 30.7032 39.1975 30.2392 39.1975 29.3112C39.1975 28.3832 38.8615 27.9192 38.1895 27.9192Z" fill="#2ECC71"/>
</svg>
