<svg width="49" height="48" viewBox="0 0 49 48" fill="none" xmlns="http://www.w3.org/2000/svg">
<path d="M17.2515 6C16.8237 6.15987 16.4029 6.33424 15.9898 6.52252M41.9354 32.6023C42.1398 32.1598 42.3283 31.7085 42.5 31.249M37.4975 38.7293C37.841 38.4089 38.1729 38.0762 38.4926 37.7321M31.0378 42.7446C31.426 42.5982 31.8082 42.4399 32.1842 42.2701M24.812 43.9878C24.3502 44.0037 23.8851 44.0037 23.4233 43.9878M16.0746 42.2807C16.4362 42.4435 16.8037 42.5956 17.1765 42.7367M9.84511 37.8415C10.1185 38.1313 10.4006 38.4128 10.691 38.6855M5.7654 31.329C5.91516 31.7245 6.07733 32.1138 6.25145 32.4965M4.50994 25.0107C4.49695 24.5944 4.49699 24.1756 4.50994 23.7588M5.75089 17.4743C5.89802 17.0833 6.05728 16.6983 6.22821 16.3196M9.81204 10.9585C10.1014 10.6503 10.4005 10.3515 10.709 10.0625" stroke="#219150" stroke-width="3" stroke-linecap="round" stroke-linejoin="round"/>
<path d="M27.5 24C27.5 25.6569 26.1569 27 24.5 27C22.8431 27 21.5 25.6569 21.5 24C21.5 22.3431 22.8431 21 24.5 21M27.5 24C27.5 22.3431 26.1569 21 24.5 21M27.5 24H32.5M24.5 21V12" stroke="#219150" stroke-width="3" stroke-linecap="round"/>
<path d="M44.5 24C44.5 12.9543 35.5457 4 24.5 4" stroke="#219150" stroke-width="3" stroke-linecap="round"/>
</svg>
